<svg width="32" height="32" viewBox="0 0 32 32" fill="none" xmlns="http://www.w3.org/2000/svg">
<path d="M16 2.66667C10.8453 2.66667 6.66667 6.84601 6.66667 12C6.66667 17.1547 16 29.3333 16 29.3333C16 29.3333 25.3333 17.1547 25.3333 12C25.3333 6.84601 21.1547 2.66667 16 2.66667ZM16 16.6667C14.7623 16.6667 13.5753 16.175 12.7002 15.2998C11.825 14.4247 11.3333 13.2377 11.3333 12C11.3333 10.7623 11.825 9.57534 12.7002 8.70017C13.5753 7.825 14.7623 7.33334 16 7.33334C17.2377 7.33334 18.4247 7.825 19.2998 8.70017C20.175 9.57534 20.6667 10.7623 20.6667 12C20.6667 13.2377 20.175 14.4247 19.2998 15.2998C18.4247 16.175 17.2377 16.6667 16 16.6667Z" fill="#FF3D00"/>
</svg>
